<svg xmlns="http://www.w3.org/2000/svg" xmlns:xlink="http://www.w3.org/1999/xlink" width="1064" zoomAndPan="magnify"
    viewBox="0 0 798 169.5" height="226" preserveAspectRatio="xMidYMid meet" version="1.0">
    <defs>
        <g />
        <clipPath id="9214430f0a">
            <path d="M 1.171875 156 L 109 156 L 109 169 L 1.171875 169 Z M 1.171875 156 " clip-rule="nonzero" />
        </clipPath>
        <clipPath id="2813a69f3b">
            <path d="M 1.171875 60 L 14 60 L 14 169 L 1.171875 169 Z M 1.171875 60 " clip-rule="nonzero" />
        </clipPath>
    </defs>
    <g fill="#e32b1f" fill-opacity="1">
        <g transform="translate(34.201948, 117.462529)">
            <g>
                <path
                    d="M 38.53125 -33.34375 C 38.53125 -31.601562 37.929688 -30.117188 36.734375 -28.890625 C 35.535156 -27.671875 34.039062 -27.0625 32.25 -27.0625 C 30.519531 -27.0625 29.039062 -27.671875 27.8125 -28.890625 C 26.582031 -30.117188 25.96875 -31.601562 25.96875 -33.34375 C 25.96875 -35.125 26.582031 -36.628906 27.8125 -37.859375 C 29.039062 -39.085938 30.519531 -39.703125 32.25 -39.703125 C 34.039062 -39.703125 35.535156 -39.085938 36.734375 -37.859375 C 37.929688 -36.628906 38.53125 -35.125 38.53125 -33.34375 Z M 64.5 -33.59375 C 64.5 -29.40625 63.828125 -25.3125 62.484375 -21.3125 C 61.148438 -17.320312 59.140625 -13.722656 56.453125 -10.515625 C 53.773438 -7.304688 50.425781 -4.75 46.40625 -2.84375 C 42.382812 -0.945312 37.691406 0 32.328125 0 C 26.910156 0 22.175781 -0.945312 18.125 -2.84375 C 14.082031 -4.75 10.71875 -7.304688 8.03125 -10.515625 C 5.351562 -13.722656 3.34375 -17.320312 2 -21.3125 C 0.664062 -25.3125 0 -29.40625 0 -33.59375 C 0 -37.78125 0.664062 -41.851562 2 -45.8125 C 3.34375 -49.78125 5.351562 -53.351562 8.03125 -56.53125 C 10.71875 -59.71875 14.082031 -62.257812 18.125 -64.15625 C 22.175781 -66.0625 26.910156 -67.015625 32.328125 -67.015625 C 37.691406 -67.015625 42.382812 -66.0625 46.40625 -64.15625 C 50.425781 -62.257812 53.773438 -59.71875 56.453125 -56.53125 C 59.140625 -53.351562 61.148438 -49.78125 62.484375 -45.8125 C 63.828125 -41.851562 64.5 -37.78125 64.5 -33.59375 Z M 51.9375 -33.34375 C 51.9375 -36.070312 51.515625 -38.734375 50.671875 -41.328125 C 49.835938 -43.929688 48.609375 -46.28125 46.984375 -48.375 C 45.367188 -50.46875 43.332031 -52.128906 40.875 -53.359375 C 38.414062 -54.585938 35.566406 -55.203125 32.328125 -55.203125 C 29.035156 -55.203125 26.160156 -54.585938 23.703125 -53.359375 C 21.242188 -52.128906 19.191406 -50.46875 17.546875 -48.375 C 15.898438 -46.28125 14.671875 -43.929688 13.859375 -41.328125 C 13.054688 -38.734375 12.65625 -36.070312 12.65625 -33.34375 C 12.65625 -30.65625 13.054688 -28.023438 13.859375 -25.453125 C 14.671875 -22.890625 15.898438 -20.570312 17.546875 -18.5 C 19.191406 -16.4375 21.242188 -14.789062 23.703125 -13.5625 C 26.160156 -12.34375 29.035156 -11.734375 32.328125 -11.734375 C 35.566406 -11.734375 38.414062 -12.34375 40.875 -13.5625 C 43.332031 -14.789062 45.367188 -16.4375 46.984375 -18.5 C 48.609375 -20.570312 49.835938 -22.890625 50.671875 -25.453125 C 51.515625 -28.023438 51.9375 -30.65625 51.9375 -33.34375 Z M 51.9375 -33.34375 " />
            </g>
        </g>
    </g>
    <path stroke-linecap="butt" transform="matrix(-1.196389, 0, 0, -1.196389, 137.129329, 11.963892)" fill="none"
        stroke-linejoin="miter" d="M 0.000353516 5.001234 L 84.434095 5.001234 " stroke="#e32b1f" stroke-width="10"
        stroke-opacity="1" stroke-miterlimit="4" />
    <path stroke-linecap="butt" transform="matrix(0, -1.196389, 1.196389, 0, 125.172745, 102.241329)" fill="none"
        stroke-linejoin="miter" d="M -0.000717539 5.001302 L 82.46421 5.001302 " stroke="#e32b1f" stroke-width="10"
        stroke-opacity="1" stroke-miterlimit="4" />
    <g clip-path="url(#9214430f0a)">
        <path stroke-linecap="butt" transform="matrix(1.196389, 0, 0, 1.196389, 1.17353, 156.992766)" fill="none"
            stroke-linejoin="miter" d="M -0.00138362 5.001546 L 84.432358 5.001546 " stroke="#e32b1f" stroke-width="10"
            stroke-opacity="1" stroke-miterlimit="4" />
    </g>
    <g clip-path="url(#2813a69f3b)">
        <path stroke-linecap="butt" transform="matrix(0, 1.196389, -1.196389, 0, 13.131289, 66.715341)" fill="none"
            stroke-linejoin="miter" d="M -0.000415324 5.000756 L 82.464512 5.000756 " stroke="#e32b1f" stroke-width="10"
            stroke-opacity="1" stroke-miterlimit="4" />
    </g>
    <g fill="black" fill-opacity="1">
        <g transform="translate(186.320757, 130.432148)">
            <g>
                <path
                    d="M 13.4375 -75.703125 C 17.09375 -75.703125 20.96875 -75.445312 25.0625 -74.9375 C 29.164062 -74.4375 33.140625 -73.457031 36.984375 -72 C 40.835938 -70.550781 44.328125 -68.4375 47.453125 -65.65625 C 50.578125 -62.882812 53.066406 -59.242188 54.921875 -54.734375 C 56.785156 -50.222656 57.71875 -44.59375 57.71875 -37.84375 C 57.71875 -31.351562 56.800781 -25.882812 54.96875 -21.4375 C 53.144531 -16.988281 50.6875 -13.359375 47.59375 -10.546875 C 44.5 -7.742188 41.015625 -5.566406 37.140625 -4.015625 C 33.265625 -2.472656 29.289062 -1.414062 25.21875 -0.84375 C 21.144531 -0.28125 17.21875 0 13.4375 0 L 1.046875 0 C 0.347656 0 0 -0.285156 0 -0.859375 L 0 -30.5625 L 14.484375 -30.5625 L 14.484375 -13.90625 C 16.304688 -13.84375 18.445312 -13.890625 20.90625 -14.046875 C 23.375 -14.203125 25.898438 -14.675781 28.484375 -15.46875 C 31.066406 -16.257812 33.476562 -17.503906 35.71875 -19.203125 C 37.957031 -20.910156 39.753906 -23.273438 41.109375 -26.296875 C 42.472656 -29.328125 43.15625 -33.175781 43.15625 -37.84375 C 43.15625 -43.84375 41.90625 -48.65625 39.40625 -52.28125 C 36.914062 -55.90625 33.507812 -58.488281 29.1875 -60.03125 C 24.863281 -61.582031 19.960938 -62.203125 14.484375 -61.890625 L 14.484375 -45.140625 L 0 -45.140625 L 0 -74.84375 C 0 -75.414062 0.347656 -75.703125 1.046875 -75.703125 Z M 13.4375 -75.703125 " />
            </g>
        </g>
    </g>
    <g fill="black" fill-opacity="1">
        <g transform="translate(257.375219, 130.432148)">
            <g>
                <path
                    d="M 30.84375 -12.96875 C 31.539062 -12.96875 31.890625 -12.679688 31.890625 -12.109375 L 31.890625 -0.859375 C 31.890625 -0.285156 31.539062 0 30.84375 0 L 1.046875 0 C 0.347656 0 0 -0.285156 0 -0.859375 L 0 -12.109375 C 0 -12.679688 0.347656 -12.96875 1.046875 -12.96875 L 8.796875 -12.96875 L 8.796875 -75.703125 L 23.28125 -75.703125 L 23.28125 -12.96875 Z M 30.84375 -12.96875 " />
            </g>
        </g>
    </g>
    <g fill="black" fill-opacity="1">
        <g transform="translate(301.276408, 130.432148)">
            <g>
                <path
                    d="M 34.734375 -42.015625 C 38.703125 -40.179688 41.742188 -37.515625 43.859375 -34.015625 C 45.972656 -30.515625 47.03125 -26.523438 47.03125 -22.046875 C 47.03125 -17.316406 45.910156 -13.3125 43.671875 -10.03125 C 41.429688 -6.75 38.53125 -4.253906 34.96875 -2.546875 C 31.40625 -0.847656 27.601562 0 23.5625 0 C 23.5625 0 23.53125 0 23.46875 0 L 23.46875 -13.625 C 23.53125 -13.625 23.5625 -13.625 23.5625 -13.625 C 26.082031 -13.625 28.289062 -14.394531 30.1875 -15.9375 C 32.082031 -17.488281 33.03125 -19.523438 33.03125 -22.046875 C 33.03125 -23.941406 32.539062 -25.550781 31.5625 -26.875 C 30.582031 -28.195312 29.363281 -29.234375 27.90625 -29.984375 C 26.457031 -30.742188 25.007812 -31.15625 23.5625 -31.21875 C 23.25 -31.21875 21.988281 -31.328125 19.78125 -31.546875 C 17.570312 -31.773438 15.078125 -32.519531 12.296875 -33.78125 C 8.390625 -35.613281 5.363281 -38.148438 3.21875 -41.390625 C 1.070312 -44.640625 0 -48.472656 0 -52.890625 C 0 -57.628906 1.117188 -61.703125 3.359375 -65.109375 C 5.597656 -68.515625 8.515625 -71.128906 12.109375 -72.953125 C 15.703125 -74.785156 19.519531 -75.703125 23.5625 -75.703125 C 27.914062 -75.703125 31.828125 -74.800781 35.296875 -73 C 38.765625 -71.207031 41.523438 -68.6875 43.578125 -65.4375 C 45.628906 -62.1875 46.6875 -58.414062 46.75 -54.125 C 46.8125 -54 46.726562 -53.84375 46.5 -53.65625 C 46.28125 -53.46875 46.015625 -53.375 45.703125 -53.375 L 33.875 -53.375 C 33.625 -53.375 33.382812 -53.46875 33.15625 -53.65625 C 32.9375 -53.84375 32.828125 -54 32.828125 -54.125 C 32.765625 -56.832031 31.816406 -58.832031 29.984375 -60.125 C 28.160156 -61.425781 26.019531 -62.078125 23.5625 -62.078125 C 20.976562 -62.078125 18.753906 -61.300781 16.890625 -59.75 C 15.023438 -58.207031 14.09375 -55.921875 14.09375 -52.890625 C 14.09375 -50.179688 15.070312 -48.113281 17.03125 -46.6875 C 18.988281 -45.269531 21.164062 -44.5625 23.5625 -44.5625 C 23.75 -44.5625 24.378906 -44.53125 25.453125 -44.46875 C 26.523438 -44.40625 27.894531 -44.203125 29.5625 -43.859375 C 31.238281 -43.515625 32.960938 -42.898438 34.734375 -42.015625 Z M 34.734375 -42.015625 " />
            </g>
        </g>
    </g>
    <g fill="black" fill-opacity="1">
        <g transform="translate(361.072191, 130.432148)">
            <g>
                <path
                    d="M 43.25 -13.90625 L 57.71875 -13.90625 L 57.71875 -0.859375 C 57.71875 -0.285156 57.375 0 56.6875 0 L 44.375 0 C 40.59375 0 36.648438 -0.28125 32.546875 -0.84375 C 28.453125 -1.414062 24.476562 -2.472656 20.625 -4.015625 C 16.78125 -5.566406 13.296875 -7.742188 10.171875 -10.546875 C 7.046875 -13.359375 4.566406 -16.988281 2.734375 -21.4375 C 0.910156 -25.882812 0 -31.351562 0 -37.84375 C 0 -44.53125 0.925781 -50.144531 2.78125 -54.6875 C 4.644531 -59.226562 7.140625 -62.882812 10.265625 -65.65625 C 13.390625 -68.4375 16.890625 -70.550781 20.765625 -72 C 24.648438 -73.457031 28.625 -74.4375 32.6875 -74.9375 C 36.757812 -75.445312 40.65625 -75.703125 44.375 -75.703125 L 56.6875 -75.703125 C 57.375 -75.703125 57.71875 -75.414062 57.71875 -74.84375 L 57.71875 -45.140625 L 43.25 -45.140625 L 43.25 -61.890625 C 37.757812 -62.203125 32.851562 -61.582031 28.53125 -60.03125 C 24.207031 -58.488281 20.800781 -55.90625 18.3125 -52.28125 C 15.820312 -48.65625 14.578125 -43.84375 14.578125 -37.84375 C 14.578125 -33.175781 15.253906 -29.328125 16.609375 -26.296875 C 17.960938 -23.273438 19.757812 -20.910156 22 -19.203125 C 24.238281 -17.503906 26.648438 -16.257812 29.234375 -15.46875 C 31.828125 -14.675781 34.351562 -14.203125 36.8125 -14.046875 C 39.269531 -13.890625 41.414062 -13.84375 43.25 -13.90625 Z M 43.25 -13.90625 " />
            </g>
        </g>
    </g>
    <g fill="black" fill-opacity="1">
        <g transform="translate(432.126642, 130.432148)">
            <g>
                <path
                    d="M 43.53125 -37.65625 C 43.53125 -35.707031 42.847656 -34.035156 41.484375 -32.640625 C 40.128906 -31.253906 38.445312 -30.5625 36.4375 -30.5625 C 34.476562 -30.5625 32.800781 -31.253906 31.40625 -32.640625 C 30.019531 -34.035156 29.328125 -35.707031 29.328125 -37.65625 C 29.328125 -39.675781 30.019531 -41.378906 31.40625 -42.765625 C 32.800781 -44.160156 34.476562 -44.859375 36.4375 -44.859375 C 38.445312 -44.859375 40.128906 -44.160156 41.484375 -42.765625 C 42.847656 -41.378906 43.53125 -39.675781 43.53125 -37.65625 Z M 72.859375 -37.9375 C 72.859375 -33.207031 72.097656 -28.585938 70.578125 -24.078125 C 69.066406 -19.566406 66.796875 -15.5 63.765625 -11.875 C 60.742188 -8.25 56.960938 -5.363281 52.421875 -3.21875 C 47.878906 -1.070312 42.582031 0 36.53125 0 C 30.40625 0 25.054688 -1.070312 20.484375 -3.21875 C 15.910156 -5.363281 12.109375 -8.25 9.078125 -11.875 C 6.054688 -15.5 3.785156 -19.566406 2.265625 -24.078125 C 0.753906 -28.585938 0 -33.207031 0 -37.9375 C 0 -42.675781 0.753906 -47.285156 2.265625 -51.765625 C 3.785156 -56.242188 6.054688 -60.28125 9.078125 -63.875 C 12.109375 -67.46875 15.910156 -70.335938 20.484375 -72.484375 C 25.054688 -74.628906 30.40625 -75.703125 36.53125 -75.703125 C 42.582031 -75.703125 47.878906 -74.628906 52.421875 -72.484375 C 56.960938 -70.335938 60.742188 -67.46875 63.765625 -63.875 C 66.796875 -60.28125 69.066406 -56.242188 70.578125 -51.765625 C 72.097656 -47.285156 72.859375 -42.675781 72.859375 -37.9375 Z M 58.671875 -37.65625 C 58.671875 -40.75 58.195312 -43.757812 57.25 -46.6875 C 56.300781 -49.625 54.910156 -52.273438 53.078125 -54.640625 C 51.253906 -57.003906 48.953125 -58.878906 46.171875 -60.265625 C 43.398438 -61.660156 40.1875 -62.359375 36.53125 -62.359375 C 32.800781 -62.359375 29.546875 -61.660156 26.765625 -60.265625 C 23.992188 -58.878906 21.675781 -57.003906 19.8125 -54.640625 C 17.957031 -52.273438 16.570312 -49.625 15.65625 -46.6875 C 14.738281 -43.757812 14.28125 -40.75 14.28125 -37.65625 C 14.28125 -34.632812 14.738281 -31.671875 15.65625 -28.765625 C 16.570312 -25.859375 17.957031 -23.238281 19.8125 -20.90625 C 21.675781 -18.570312 23.992188 -16.710938 26.765625 -15.328125 C 29.546875 -13.941406 32.800781 -13.25 36.53125 -13.25 C 40.1875 -13.25 43.398438 -13.941406 46.171875 -15.328125 C 48.953125 -16.710938 51.253906 -18.570312 53.078125 -20.90625 C 54.910156 -23.238281 56.300781 -25.859375 57.25 -28.765625 C 58.195312 -31.671875 58.671875 -34.632812 58.671875 -37.65625 Z M 58.671875 -37.65625 " />
            </g>
        </g>
    </g>
    <g fill="black" fill-opacity="1">
        <g transform="translate(518.9811, 130.432148)">
            <g>
                <path
                    d="M 39.453125 -61.59375 L 54.03125 -61.59375 L 30.375 -0.46875 C 30.25 -0.15625 29.960938 0 29.515625 0 C 29.078125 0 28.765625 -0.15625 28.578125 -0.46875 L 0.09375 -74.5625 C -0.03125 -74.875 -0.015625 -75.140625 0.140625 -75.359375 C 0.296875 -75.585938 0.566406 -75.703125 0.953125 -75.703125 L 13.8125 -75.703125 C 14.382812 -75.703125 14.703125 -75.507812 14.765625 -75.125 L 29.515625 -33.875 Z M 39.453125 -61.59375 " />
            </g>
        </g>
    </g>
    <g fill="black" fill-opacity="1">
        <g transform="translate(586.156515, 130.432148)">
            <g>
                <path
                    d="M 35.953125 -14.09375 L 35.953125 0 L 1.046875 0 C 0.347656 0 0 -0.285156 0 -0.859375 L 0 -74.84375 C 0 -75.414062 0.347656 -75.703125 1.046875 -75.703125 L 35.953125 -75.703125 L 35.953125 -61.984375 L 14.484375 -61.984375 L 14.484375 -44.859375 L 44.1875 -44.859375 C 44.882812 -44.859375 45.234375 -44.570312 45.234375 -44 L 45.234375 -31.984375 C 45.234375 -31.410156 44.882812 -31.125 44.1875 -31.125 L 14.484375 -31.125 L 14.484375 -14.09375 Z M 35.953125 -14.09375 " />
            </g>
        </g>
    </g>
    <g fill="black" fill-opacity="1">
        <g transform="translate(644.060092, 130.432148)">
            <g>
                <path
                    d="M 51.671875 -1.234375 C 51.796875 -0.910156 51.773438 -0.625 51.609375 -0.375 C 51.453125 -0.125 51.1875 0 50.8125 0 L 37.28125 0 C 36.78125 0 36.46875 -0.1875 36.34375 -0.5625 L 22.515625 -30.5625 L 14.390625 -30.5625 L 14.390625 -0.859375 C 14.390625 -0.285156 14.039062 0 13.34375 0 L 0.953125 0 C 0.316406 0 0 -0.285156 0 -0.859375 L 0 -44.46875 L 25.453125 -44.46875 C 26.210938 -44.46875 27.222656 -44.53125 28.484375 -44.65625 C 29.742188 -44.789062 30.988281 -45.140625 32.21875 -45.703125 C 33.445312 -46.273438 34.488281 -47.144531 35.34375 -48.3125 C 36.195312 -49.476562 36.625 -51.097656 36.625 -53.171875 C 36.625 -55.253906 36.164062 -56.894531 35.25 -58.09375 C 34.332031 -59.289062 33.210938 -60.15625 31.890625 -60.6875 C 30.566406 -61.226562 29.304688 -61.578125 28.109375 -61.734375 C 26.910156 -61.898438 26.023438 -61.984375 25.453125 -61.984375 L 0 -61.984375 L 0 -74.84375 C 0 -75.414062 0.316406 -75.703125 0.953125 -75.703125 L 25.453125 -75.703125 C 26.335938 -75.703125 27.753906 -75.625 29.703125 -75.46875 C 31.660156 -75.3125 33.851562 -74.882812 36.28125 -74.1875 C 38.71875 -73.488281 41.054688 -72.347656 43.296875 -70.765625 C 45.535156 -69.191406 47.378906 -66.984375 48.828125 -64.140625 C 50.273438 -61.304688 51 -57.648438 51 -53.171875 C 51 -49.328125 50.367188 -46.0625 49.109375 -43.375 C 47.847656 -40.695312 46.160156 -38.503906 44.046875 -36.796875 C 41.929688 -35.097656 39.613281 -33.773438 37.09375 -32.828125 C 39.488281 -27.472656 41.929688 -22.175781 44.421875 -16.9375 C 46.921875 -11.695312 49.335938 -6.460938 51.671875 -1.234375 Z M 51.671875 -1.234375 " />
            </g>
        </g>
    </g>
    <g fill="black" fill-opacity="1">
        <g transform="translate(708.870238, 130.432148)">
            <g>
                <path
                    d="M 42.953125 -61.21875 L 60.5625 -61.21875 L 42.296875 -35.578125 L 42.296875 -0.859375 C 42.296875 -0.285156 41.945312 0 41.25 0 L 28.859375 0 C 28.160156 0 27.8125 -0.285156 27.8125 -0.859375 L 27.8125 -35.578125 C 23.269531 -42.078125 18.679688 -48.539062 14.046875 -54.96875 C 9.410156 -61.40625 4.789062 -67.84375 0.1875 -74.28125 C -0.0625 -74.59375 -0.09375 -74.90625 0.09375 -75.21875 C 0.28125 -75.539062 0.628906 -75.703125 1.140625 -75.703125 L 16.09375 -75.703125 C 16.53125 -75.703125 16.84375 -75.609375 17.03125 -75.421875 L 35.015625 -50.15625 Z M 42.953125 -61.21875 " />
            </g>
        </g>
    </g>
</svg>